<svg id="Layer_1" data-name="Layer 1" xmlns="http://www.w3.org/2000/svg" viewBox="0 0 1781 2466.65"><path d="M1169.4,891,922.7,1120.7l-229-462.1L812,392.9c29.9-53,78.8-53.7,108.7,0Z" transform="translate(0 -0.05)" fill="#ffa000"/><path d="M922.8,1120.6,0,1978.9,693.8,658.6Z" transform="translate(0 -0.05)" fill="#f57f17"/><path d="M1439.9,539.7c44.2-42.1,89.7-27.9,101.2,31.9L1781,1967.3,985.3,2445c-27.9,15.6-101.9,21.7-101.9,21.7s-67.3-8.2-93.1-22.4L0,1978.9Z" transform="translate(0 -0.05)" fill="#ffca28"/><path d="M693.8,658.6,0,1978.9,309.2,49.1c11.6-59.8,45.5-65.9,76.1-12.9Z" transform="translate(0 -0.05)" fill="#ffa000"/></svg>