<svg id="Layer_1" data-name="Layer 1" xmlns="http://www.w3.org/2000/svg" viewBox="0 0 2385.68 1919.87"><path d="M1513.8,528.7h72.8L1794,321.3l10.2-88c-385.9-340.6-975-303.9-1315.6,82A930.55,930.55,0,0,0,287.8,688a112.94,112.94,0,0,1,72.8-4.4l414.7-68.4s21.1-34.9,32-32.7c184.5-202.6,495-226.2,708-53.8Z" transform="translate(-0.05 -0.05)" fill="#ea4335"/><path d="M2089.4,688a934.22,934.22,0,0,0-281.6-454l-291,291a517.31,517.31,0,0,1,189.9,410.4v51.7c143.1,0,259,116,259,259s-116,259-259,259H1188.6l-51.7,52.4v310.7l51.7,51.7h518.1c297,2.3,560.5-190.2,648.7-473.8,88-283.7-20-591.7-266-758.1Z" transform="translate(-0.05 -0.05)" fill="#4285f4"/><path d="M669.8,1917h518.1V1502.3H669.8a256.76,256.76,0,0,1-107-23.3L490,1501.5,281.2,1708.9,263,1781.7A670.56,670.56,0,0,0,669.8,1917Z" transform="translate(-0.05 -0.05)" fill="#34a853"/><path d="M669.8,571.6A673.66,673.66,0,0,0,35.3,1030.3C-56.5,1303,35,1604,263.1,1779.4l300.5-300.5c-130.4-58.9-188.3-212.3-129.4-342.7s212.3-188.3,342.7-129.4a259.71,259.71,0,0,1,129.4,129.4l300.5-300.5a673.47,673.47,0,0,0-537-264.1Z" transform="translate(-0.05 -0.05)" fill="#fbbc05"/></svg>