<?xml version="1.0" encoding="UTF-8" standalone="no"?>
<!-- Created with Inkscape (http://www.inkscape.org/) -->

<svg
   width="516.974"
   height="460.08801"
   viewBox="0 0 136.7827 121.73163"
   version="1.1"
   id="svg12620"
   xml:space="preserve"
   inkscape:version="1.2 (dc2aedaf03, 2022-05-15)"
   sodipodi:docname="ProyectoInkscape.svg"
   xmlns:inkscape="http://www.inkscape.org/namespaces/inkscape"
   xmlns:sodipodi="http://sodipodi.sourceforge.net/DTD/sodipodi-0.dtd"
   xmlns:xlink="http://www.w3.org/1999/xlink"
   xmlns="http://www.w3.org/2000/svg"
   xmlns:svg="http://www.w3.org/2000/svg"><sodipodi:namedview
     id="namedview12622"
     pagecolor="#ffffff"
     bordercolor="#111111"
     borderopacity="1"
     inkscape:showpageshadow="0"
     inkscape:pageopacity="0"
     inkscape:pagecheckerboard="1"
     inkscape:deskcolor="#d1d1d1"
     inkscape:document-units="mm"
     showgrid="false"
     showguides="true"
     inkscape:zoom="0.91335021"
     inkscape:cx="211.8574"
     inkscape:cy="238.68172"
     inkscape:window-width="1366"
     inkscape:window-height="705"
     inkscape:window-x="-8"
     inkscape:window-y="-8"
     inkscape:window-maximized="1"
     inkscape:current-layer="svg12620" /><defs
     id="defs12617"><linearGradient
       inkscape:collect="always"
       xlink:href="#linearGradient16297"
       id="linearGradient16299"
       x1="-3.401268"
       y1="50.766911"
       x2="108.19286"
       y2="50.766911"
       gradientUnits="userSpaceOnUse"
       spreadMethod="pad" /><linearGradient
       inkscape:collect="always"
       id="linearGradient16297"><stop
         style="stop-color:#0f5af2;stop-opacity:1;"
         offset="0"
         id="stop16293" /><stop
         style="stop-color:#07c7f2;stop-opacity:1;"
         offset="1"
         id="stop16295" /></linearGradient><g
       id="compositing-group-0"
       transform="translate(192,108)"><rect
         x="-192"
         y="-108"
         width="2304"
         height="1296"
         fill="#000000"
         fill-opacity="0"
         id="rect21311" /><clipPath
         id="clip-0"><path
           clip-rule="nonzero"
           d="M 81,52 H 614 V 172 H 81 Z m 0,0"
           id="path21313" /></clipPath><g
         clip-path="url(#clip-0)"
         id="g21318"><rect
           x="-192"
           y="-108"
           width="2304"
           height="1296"
           fill="#ffffff"
           fill-opacity="1"
           id="rect21316" /></g></g><g
       id="compositing-group-3"
       transform="translate(192,108)"><rect
         x="-192"
         y="-108"
         width="2304"
         height="1296"
         fill="#000000"
         fill-opacity="0"
         id="rect21336" /><clipPath
         id="clip-1"><path
           clip-rule="nonzero"
           d="M 81,172 H 614 V 541 H 81 Z m 0,0"
           id="path21338" /></clipPath><g
         clip-path="url(#clip-1)"
         id="g21343"><rect
           x="-192"
           y="-108"
           width="2304"
           height="1296"
           fill="#ffffff"
           fill-opacity="1"
           id="rect21341" /></g></g><g
       id="compositing-group-6"
       transform="translate(192,108)"><rect
         x="-192"
         y="-108"
         width="2304"
         height="1296"
         fill="#000000"
         fill-opacity="0"
         id="rect21365" /><clipPath
         id="clip-2"><path
           clip-rule="nonzero"
           d="m 852,172 h 789 V 541 H 852 Z m 0,0"
           id="path21367" /></clipPath><g
         clip-path="url(#clip-2)"
         id="g21372"><rect
           x="-192"
           y="-108"
           width="2304"
           height="1296"
           fill="#ffffff"
           fill-opacity="1"
           id="rect21370" /></g></g><g
       id="compositing-group-9"
       transform="translate(192,108)"><rect
         x="-192"
         y="-108"
         width="2304"
         height="1296"
         fill="#000000"
         fill-opacity="0"
         id="rect21394" /><clipPath
         id="clip-3"><path
           clip-rule="nonzero"
           d="m 852,541 h 789 v 33 H 852 Z m 0,0"
           id="path21396" /></clipPath><g
         clip-path="url(#clip-3)"
         id="g21401"><rect
           x="-192"
           y="-108"
           width="2304"
           height="1296"
           fill="#ffffff"
           fill-opacity="1"
           id="rect21399" /></g></g><g
       id="compositing-group-12"
       transform="translate(192,108)"><rect
         x="-192"
         y="-108"
         width="2304"
         height="1296"
         fill="#000000"
         fill-opacity="0"
         id="rect21423" /><clipPath
         id="clip-4"><path
           clip-rule="nonzero"
           d="M 69,574 H 603 V 881 H 69 Z m 0,0"
           id="path21425" /></clipPath><g
         clip-path="url(#clip-4)"
         id="g21430"><rect
           x="-192"
           y="-108"
           width="2304"
           height="1296"
           fill="#ffffff"
           fill-opacity="1"
           id="rect21428" /></g></g><g
       id="compositing-group-15"
       transform="translate(192,108)"><rect
         x="-192"
         y="-108"
         width="2304"
         height="1296"
         fill="#000000"
         fill-opacity="0"
         id="rect21452" /><clipPath
         id="clip-5"><path
           clip-rule="nonzero"
           d="m 852,574 h 789 V 881 H 852 Z m 0,0"
           id="path21454" /></clipPath><g
         clip-path="url(#clip-5)"
         id="g21459"><rect
           x="-192"
           y="-108"
           width="2304"
           height="1296"
           fill="#ffffff"
           fill-opacity="1"
           id="rect21457" /></g></g><g
       id="compositing-group-18"
       transform="translate(192,108)"><rect
         x="-192"
         y="-108"
         width="2304"
         height="1296"
         fill="#000000"
         fill-opacity="0"
         id="rect21481" /><clipPath
         id="clip-6"><path
           clip-rule="nonzero"
           d="m 69,881 h 534 v 182 H 69 Z m 0,0"
           id="path21483" /></clipPath><g
         clip-path="url(#clip-6)"
         id="g21488"><rect
           x="-192"
           y="-108"
           width="2304"
           height="1296"
           fill="#ffffff"
           fill-opacity="1"
           id="rect21486" /></g></g><linearGradient
       inkscape:collect="always"
       xlink:href="#linearGradient16297"
       id="linearGradient22622"
       x1="53.795956"
       y1="-2.189487"
       x2="53.725857"
       y2="103.19131"
       gradientUnits="userSpaceOnUse" /></defs><path
     sodipodi:type="star"
     style="display:none;fill:url(#linearGradient16299);fill-opacity:1;fill-rule:evenodd;stroke-width:0.264583"
     id="path13954"
     inkscape:flatsided="true"
     sodipodi:sides="6"
     sodipodi:cx="52.395798"
     sodipodi:cy="50.766911"
     sodipodi:r1="47.650497"
     sodipodi:r2="48.321674"
     sodipodi:arg1="-3.1392203"
     sodipodi:arg2="-2.6156216"
     inkscape:rounded="0.63954834"
     inkscape:randomized="0"
     d="M 4.7454344,50.653867 C 4.8177313,20.179156 2.2404926,24.618708 28.668515,9.4439635 55.096537,-5.7307809 49.963153,-5.7429591 76.318878,9.5570073 102.6746,24.856974 100.11846,20.405243 100.04616,50.879954 99.973864,81.354665 102.5511,76.915113 76.123081,92.089858 49.695058,107.2646 54.828443,107.27678 28.472717,91.976814 2.1169921,76.676847 4.6731375,81.128578 4.7454344,50.653867 Z"
     transform="matrix(-1.2308359e-4,-1.1714632,1.1714632,-1.2308359e-4,6.6083449,115.45894)"
     inkscape:label="FondoV1" /><g
     inkscape:groupmode="layer"
     id="layer5"
     inkscape:label="FondoV2"
     style="display:inline"
     transform="translate(-1.6609974,-10.268006)"><path
       sodipodi:type="star"
       style="display:inline;fill:#0f5af2;fill-opacity:1;fill-rule:evenodd;stroke-width:0.264544;stroke-dasharray:none"
       id="path21965"
       inkscape:flatsided="true"
       sodipodi:sides="6"
       sodipodi:cx="52.395798"
       sodipodi:cy="50.766911"
       sodipodi:r1="47.650497"
       sodipodi:r2="48.321674"
       sodipodi:arg1="-3.1392203"
       sodipodi:arg2="-2.6156216"
       inkscape:rounded="0.63954834"
       inkscape:randomized="0"
       d="M 4.7454344,50.653867 C 4.8177313,20.179156 2.2404926,24.618708 28.668515,9.4439635 55.096537,-5.7307809 49.963153,-5.7429591 76.318878,9.5570073 102.6746,24.856974 100.11846,20.405243 100.04616,50.879954 99.973864,81.354665 102.5511,76.915113 76.123081,92.089858 49.695058,107.2646 54.828443,107.27678 28.472717,91.976814 2.1169921,76.676847 4.6731375,81.128578 4.7454344,50.653867 Z"
       transform="matrix(-0.00250056,-1.1319911,1.1363871,-0.00246304,6.0994173,126.37033)"
       inkscape:label="Fondo" /><path
       sodipodi:type="star"
       style="display:inline;fill:#0cb1f2;fill-opacity:1;fill-rule:evenodd;stroke-width:0.264583"
       id="path21953"
       inkscape:flatsided="true"
       sodipodi:sides="6"
       sodipodi:cx="52.395798"
       sodipodi:cy="50.766911"
       sodipodi:r1="47.650497"
       sodipodi:r2="48.321674"
       sodipodi:arg1="-3.1392203"
       sodipodi:arg2="-2.6156216"
       inkscape:rounded="0.63954834"
       inkscape:randomized="0"
       d="M 4.7454344,50.653867 C 4.8177313,20.179156 2.2404926,24.618708 28.668515,9.4439635 55.096537,-5.7307809 49.963153,-5.7429591 76.318878,9.5570073 102.6746,24.856974 100.11846,20.405243 100.04616,50.879954 99.973864,81.354665 102.5511,76.915113 76.123081,92.089858 49.695058,107.2646 54.828443,107.27678 28.472717,91.976814 2.1169921,76.676847 4.6731375,81.128578 4.7454344,50.653867 Z"
       transform="matrix(-1.1575606e-4,-1.1146076,1.1017225,-1.1710987e-4,21.289034,134.54123)"
       inkscape:label="Fondo" /></g><g
     inkscape:groupmode="layer"
     id="layer6"
     inkscape:label="Vidrio"
     style="display:inline"
     transform="translate(-1.6609974,-10.268006)"><path
       sodipodi:type="star"
       style="display:inline;opacity:1;fill:url(#linearGradient22622);fill-opacity:1;fill-rule:evenodd;stroke:none;stroke-width:1e-08;stroke-dasharray:none;stroke-opacity:1"
       id="path22613"
       inkscape:flatsided="true"
       sodipodi:sides="6"
       sodipodi:cx="52.395798"
       sodipodi:cy="50.766911"
       sodipodi:r1="47.650497"
       sodipodi:r2="48.321674"
       sodipodi:arg1="-3.1392203"
       sodipodi:arg2="-2.6156216"
       inkscape:rounded="0.63954834"
       inkscape:randomized="0"
       d="M 4.7454344,50.653867 C 4.8177313,20.179156 2.2404926,24.618708 28.668515,9.4439635 55.096537,-5.7307809 49.963153,-5.7429591 76.318878,9.5570073 102.6746,24.856974 100.11846,20.405243 100.04616,50.879954 99.973864,81.354665 102.5511,76.915113 76.123081,92.089858 49.695058,107.2646 54.828443,107.27678 28.472717,91.976814 2.1169921,76.676847 4.6731375,81.128578 4.7454344,50.653867 Z"
       transform="matrix(-1.0717734e-4,-1.0938129,1.0200734,-1.14925e-4,18.070765,127.47885)"
       inkscape:label="FondoDegradado" /><path
       sodipodi:type="star"
       style="display:inline;opacity:0.37;fill:#ffffff;fill-opacity:1;fill-rule:evenodd;stroke:none;stroke-width:1e-08;stroke-dasharray:none;stroke-opacity:1"
       id="path21710"
       inkscape:flatsided="true"
       sodipodi:sides="6"
       sodipodi:cx="52.395798"
       sodipodi:cy="50.766911"
       sodipodi:r1="47.650497"
       sodipodi:r2="48.321674"
       sodipodi:arg1="-3.1392203"
       sodipodi:arg2="-2.6156216"
       inkscape:rounded="0.63954834"
       inkscape:randomized="0"
       d="M 4.7454344,50.653867 C 4.8177313,20.179156 2.2404926,24.618708 28.668515,9.4439635 55.096537,-5.7307809 49.963153,-5.7429591 76.318878,9.5570073 102.6746,24.856974 100.11846,20.405243 100.04616,50.879954 99.973864,81.354665 102.5511,76.915113 76.123081,92.089858 49.695058,107.2646 54.828443,107.27678 28.472717,91.976814 2.1169921,76.676847 4.6731375,81.128578 4.7454344,50.653867 Z"
       transform="matrix(-1.0717734e-4,-1.0938129,1.0200734,-1.14925e-4,18.070765,127.47885)"
       inkscape:label="Opacidad" /><path
       sodipodi:type="star"
       style="display:inline;opacity:1;fill:none;fill-opacity:1;fill-rule:evenodd;stroke:#ffffff;stroke-width:0.250481;stroke-dasharray:none;stroke-opacity:1"
       id="path21742"
       inkscape:flatsided="true"
       sodipodi:sides="6"
       sodipodi:cx="52.395798"
       sodipodi:cy="50.766911"
       sodipodi:r1="47.650497"
       sodipodi:r2="48.321674"
       sodipodi:arg1="-3.1392203"
       sodipodi:arg2="-2.6156216"
       inkscape:rounded="0.63954834"
       inkscape:randomized="0"
       d="M 4.7454344,50.653867 C 4.8177313,20.179156 2.2404926,24.618708 28.668515,9.4439635 55.096537,-5.7307809 49.963153,-5.7429591 76.318878,9.5570073 102.6746,24.856974 100.11846,20.405243 100.04616,50.879954 99.973864,81.354665 102.5511,76.915113 76.123081,92.089858 49.695058,107.2646 54.828443,107.27678 28.472717,91.976814 2.1169921,76.676847 4.6731375,81.128578 4.7454344,50.653867 Z"
       transform="matrix(-1.0717734e-4,-1.0938129,1.0200734,-1.14925e-4,18.070765,127.47885)"
       inkscape:label="Borde" /></g><g
     aria-label="R"
     transform="scale(0.95561639,1.046445)"
     id="text21718"
     style="font-size:98.5454px;line-height:1.25;font-family:'Microsoft Sans Serif';-inkscape-font-specification:'Microsoft Sans Serif';display:inline;opacity:0.9;fill:#ffffff;stroke-width:2.46363"
     inkscape:label="R"><path
       d="M 103.06127,91.739891 H 92.956518 L 86.316251,72.925803 q -1.780361,-5.004259 -5.918498,-8.180038 -4.138137,-3.17578 -9.527339,-3.17578 H 53.596098 V 91.739891 H 44.261231 V 21.19909 H 75.48973 q 8.180038,0 13.376768,1.58789 5.196731,1.58789 8.468746,6.688384 3.272016,5.100495 3.272016,11.500172 0,7.313916 -4.234373,12.221939 -4.234373,4.908023 -11.596408,6.399677 v 0.192472 Q 92.138514,62.1474 95.987944,72.54086 Z M 53.596098,53.197475 h 20.835039 q 8.709335,0 12.606882,-2.742718 3.945666,-2.742719 3.945666,-9.479221 0,-12.029468 -15.109012,-12.029468 H 53.596098 Z"
       id="path446" /></g></svg>
